HIERARCHY
ROOT joint_Root
{
	OFFSET 0.0 0.0 0.0
	CHANNELS 6 Xposition Yposition Zposition Zrotation Xrotation Yrotation 
	JOINT Hips
	{
		OFFSET 4.5925 91.4895 -427.239
		CHANNELS 6 Xposition Yposition Zposition Zrotation Xrotation Yrotation 
		JOINT Spine
		{
			OFFSET 15.7357 0.0 0.0
			CHANNELS 6 Xposition Yposition Zposition Zrotation Xrotation Yrotation 
			JOINT Chest
			{
				OFFSET 8.98455 -0.406207 0.0
				CHANNELS 6 Xposition Yposition Zposition Zrotation Xrotation Yrotation 
				JOINT Neck
				{
					OFFSET 16.3773 0.0 0.0
					CHANNELS 6 Xposition Yposition Zposition Zrotation Xrotation Yrotation 
					JOINT Head
					{
						OFFSET 6.45672 0.0 0.0
						CHANNELS 6 Xposition Yposition Zposition Zrotation Xrotation Yrotation 
						End Site
						{
							OFFSET 0.0 0.0 0.0
						}
					}
				}
				JOINT Shoulder_L
				{
					OFFSET 12.9942 -0.242716 4.98039
					CHANNELS 6 Xposition Yposition Zposition Zrotation Xrotation Yrotation 
					JOINT UpperArm_L
					{
						OFFSET 5.34809 0.0 0.0
						CHANNELS 6 Xposition Yposition Zposition Zrotation Xrotation Yrotation 
						JOINT LowerArm_L
						{
							OFFSET 24.3286 1.87007e-05 0.0
							CHANNELS 6 Xposition Yposition Zposition Zrotation Xrotation Yrotation 
							JOINT Hand_L
							{
								OFFSET 22.2916 0.0 0.0
								CHANNELS 6 Xposition Yposition Zposition Zrotation Xrotation Yrotation 
								End Site
								{
									OFFSET 0.0 0.0 0.0
								}
							}
						}
					}
				}
				JOINT Shoulder_R
				{
					OFFSET 12.9945 -0.242716 -4.98039
					CHANNELS 6 Xposition Yposition Zposition Zrotation Xrotation Yrotation 
					JOINT UpperArm_R
					{
						OFFSET -5.34813 0.0 0.0
						CHANNELS 6 Xposition Yposition Zposition Zrotation Xrotation Yrotation 
						JOINT LowerArm_R
						{
							OFFSET -24.3289 0.000322201 0.0
							CHANNELS 6 Xposition Yposition Zposition Zrotation Xrotation Yrotation 
							JOINT Hand_R
							{
								OFFSET -22.2915 -0.000108084 0.0
								CHANNELS 6 Xposition Yposition Zposition Zrotation Xrotation Yrotation 
								End Site
								{
									OFFSET 0.0 0.0 0.0
								}
							}
						}
					}
				}
			}
		}
		JOINT UpperLeg_L
		{
			OFFSET -2.19248 -6.46944 0.0
			CHANNELS 6 Xposition Yposition Zposition Zrotation Xrotation Yrotation 
			JOINT LowerLeg_L
			{
				OFFSET 39.0811 0.0 -1.23785e-05
				CHANNELS 6 Xposition Yposition Zposition Zrotation Xrotation Yrotation 
				JOINT Foot_L
				{
					OFFSET 40.9854 0.0 -1.26872e-05
					CHANNELS 6 Xposition Yposition Zposition Zrotation Xrotation Yrotation 
					JOINT Toes_L
					{
						OFFSET 11.7543 0.0 0.0
						CHANNELS 6 Xposition Yposition Zposition Zrotation Xrotation Yrotation 
						End Site
						{
							OFFSET 0.0 0.0 0.0
						}
					}
				}
			}
		}
		JOINT UpperLeg_R
		{
			OFFSET -2.19251 6.46944 0.0
			CHANNELS 6 Xposition Yposition Zposition Zrotation Xrotation Yrotation 
			JOINT LowerLeg_R
			{
				OFFSET -39.0811 -0.00228153 -0.0401928
				CHANNELS 6 Xposition Yposition Zposition Zrotation Xrotation Yrotation 
				JOINT Foot_R
				{
					OFFSET -40.9854 0.0 0.0
					CHANNELS 6 Xposition Yposition Zposition Zrotation Xrotation Yrotation 
					JOINT Toes_R
					{
						OFFSET -11.7543 0.0 0.0
						CHANNELS 6 Xposition Yposition Zposition Zrotation Xrotation Yrotation 
						End Site
						{
							OFFSET 0.0 0.0 0.0
						}
					}
				}
			}
		}
	}
}
MOTION
Frames:	7
Frame Time:	0.0333333
0.000000 0.000000 0.000000 0.000000 0.000000 -0.000000 0.534164 91.763600 1.719480 89.512600 0.447735 1.887030 15.735700 0.000005 -0.000001 83.408400 86.964100 -83.213900 8.984550 -0.406207 -0.000000 -1.733180 -0.712943 0.378082 16.377300 -0.000001 -0.000001 5.885090 -4.197230 2.757820 6.456720 -0.000001 -0.000000 -2.190550 -3.854430 -2.090000 12.994200 -0.242716 4.980390 -83.741900 -11.275900 -60.714900 5.348090 -0.000007 -0.000001 -40.656200 -60.450200 -86.075200 24.328600 0.000019 0.000005 10.517800 11.003700 -44.206700 22.291600 -0.000001 0.000005 25.841700 5.392170 -2.684980 12.994500 -0.242716 -4.980390 94.913400 -11.236200 -66.193700 -5.348130 -0.000001 -0.000004 -46.586300 -59.721300 -92.686000 -24.328900 0.000322 -0.000009 1.079170 1.139360 -43.481600 -22.291500 -0.000108 -0.000004 19.403900 5.595550 -11.078200 -2.192480 -6.469440 -0.000000 -176.813000 -12.025600 -4.382650 39.081100 -0.000007 -0.000012 -0.129457 0.283341 24.555500 40.985400 -0.000006 -0.000013 1.146890 7.813540 -68.464700 11.754300 -0.000000 0.000003 -0.000228 -0.002066 -16.655200 -2.192510 6.469440 -0.000001 175.805000 25.978500 177.006000 -39.081100 -0.002282 -0.040193 -0.000473 0.008474 24.081300 -40.985400 0.000008 0.000006 4.585290 12.658900 -69.159900 -11.754300 -0.000006 -0.000006 -0.001429 -0.021323 -17.440200
0.000000 0.000000 0.000000 0.000000 0.000000 -0.000000 0.556386 91.759500 1.750720 89.515500 0.374637 1.879910 15.735700 0.000005 -0.000001 83.342900 86.935600 -83.146100 8.984550 -0.406207 -0.000000 -1.677330 -0.726535 0.382924 16.377300 -0.000001 -0.000001 5.932360 -4.198550 2.747470 6.456720 -0.000001 -0.000000 -2.186920 -3.705350 -2.130220 12.994200 -0.242716 4.980390 -83.897000 -10.941100 -60.605800 5.348090 -0.000007 -0.000001 -40.022700 -59.777300 -84.012200 24.328600 0.000019 0.000005 11.039800 11.255100 -44.988600 22.291600 -0.000001 0.000005 26.108200 5.385620 -2.475790 12.994500 -0.242716 -4.980390 94.817900 -10.957300 -66.085900 -5.348130 -0.000001 -0.000004 -45.535400 -59.213700 -91.038600 -24.328900 0.000322 -0.000009 1.095710 1.155680 -43.510000 -22.291500 -0.000108 -0.000004 18.761000 5.589380 -10.725800 -2.192480 -6.469440 -0.000000 -176.837000 -11.997600 -4.346210 39.081100 -0.000007 -0.000012 -0.130177 0.285036 24.546400 40.985400 -0.000006 -0.000013 1.139180 7.713340 -68.498500 11.754300 -0.000000 0.000003 -0.000222 -0.002020 -16.653500 -2.192510 6.469440 -0.000001 175.798000 25.865000 176.996000 -39.081100 -0.002282 -0.040193 -0.000795 0.009188 24.093900 -40.985400 0.000008 0.000006 4.543150 12.615800 -69.163800 -11.754300 -0.000006 -0.000006 -0.001364 -0.020455 -17.404900
0.000000 0.000000 0.000000 0.000000 0.000000 -0.000000 0.558591 91.752500 1.781550 89.504300 0.301627 1.938040 15.735700 0.000005 -0.000001 83.393800 86.893100 -83.212100 8.984550 -0.406207 -0.000000 -1.592390 -0.729528 0.353183 16.377300 -0.000001 -0.000001 5.943370 -4.222220 2.779990 6.456720 -0.000001 -0.000000 -2.167760 -3.605260 -2.065800 12.994200 -0.242716 4.980390 -84.144400 -10.529100 -60.697500 5.348090 -0.000007 -0.000001 -39.166700 -58.488700 -80.830500 24.328600 0.000019 0.000005 11.187800 10.864600 -46.378400 22.291600 -0.000001 0.000005 26.257700 5.376870 -2.200430 12.994500 -0.242716 -4.980390 94.627400 -10.546600 -66.144600 -5.348130 -0.000001 -0.000004 -43.641600 -58.116900 -87.559400 -24.328900 0.000322 -0.000009 0.956104 0.985211 -44.181400 -22.291500 -0.000108 -0.000004 18.341800 5.580520 -10.238500 -2.192480 -6.469440 -0.000000 -176.821000 -11.946900 -4.275380 39.081100 -0.000007 -0.000012 -0.130339 0.285000 24.576100 40.985400 -0.000006 -0.000013 1.113250 7.596050 -68.536200 11.754300 -0.000000 0.000003 -0.000239 -0.002152 -16.658300 -2.192510 6.469440 -0.000001 175.796000 25.685000 177.052000 -39.081100 -0.002282 -0.040193 -0.000262 0.007987 24.119800 -40.985400 0.000008 0.000006 4.545900 12.506200 -69.190500 -11.754300 -0.000006 -0.000006 -0.001414 -0.021123 -17.432100
0.000000 0.000000 0.000000 0.000000 0.000000 -0.000000 0.553252 91.725700 1.825730 89.488500 0.215003 2.089130 15.735700 0.000005 -0.000001 83.474700 86.823400 -83.325600 8.984550 -0.406207 -0.000000 -1.453120 -0.733811 0.288716 16.377300 -0.000001 -0.000001 5.846620 -4.250500 2.899630 6.456720 -0.000001 -0.000000 -2.087110 -3.498380 -1.949460 12.994200 -0.242716 4.980390 -84.545300 -9.901700 -60.956100 5.348090 -0.000007 -0.000001 -37.816100 -56.499700 -76.526200 24.328600 0.000019 0.000005 11.453100 10.451400 -48.159600 22.291600 -0.000001 0.000005 26.070600 5.364920 -1.829150 12.994500 -0.242716 -4.980390 94.262700 -9.872060 -66.503400 -5.348130 -0.000001 -0.000004 -40.963300 -56.330400 -82.249100 -24.328900 0.000322 -0.000009 0.889831 0.864618 -45.863300 -22.291500 -0.000108 -0.000004 18.009000 5.568690 -9.620610 -2.192480 -6.469440 -0.000000 -176.765000 -11.960300 -4.142960 39.081100 -0.000007 -0.000012 -0.131485 0.285616 24.719400 40.985400 -0.000006 -0.000013 1.107520 7.549790 -68.652700 11.754300 -0.000000 0.000003 -0.000214 -0.001962 -16.651400 -2.192510 6.469440 -0.000001 175.734000 25.568700 177.185000 -39.081100 -0.002282 -0.040193 -0.003064 0.014157 24.250400 -40.985400 0.000008 0.000006 4.551240 12.481700 -69.289900 -11.754300 -0.000006 -0.000006 -0.001449 -0.021592 -17.451100
0.000000 0.000000 0.000000 0.000000 0.000000 -0.000000 0.537721 91.691300 1.861250 89.492200 0.117764 2.304840 15.735700 0.000005 -0.000001 83.811800 86.733600 -83.705400 8.984550 -0.406207 -0.000000 -1.270720 -0.712441 0.204856 16.377300 -0.000001 -0.000001 5.639530 -4.342010 2.990840 6.456720 -0.000001 -0.000000 -2.044640 -3.546570 -1.762640 12.994200 -0.242716 4.980390 -85.134500 -8.984520 -61.406200 5.348090 -0.000007 -0.000001 -36.149400 -53.675900 -71.214900 24.328600 0.000019 0.000005 11.890300 10.065400 -50.305300 22.291600 -0.000001 0.000005 25.436100 5.346590 -1.273310 12.994500 -0.242716 -4.980390 93.683500 -8.716270 -66.983900 -5.348130 -0.000001 -0.000004 -38.256300 -53.598200 -76.233900 -24.328900 0.000322 -0.000009 0.801274 0.719924 -48.110500 -22.291500 -0.000108 -0.000004 17.507800 5.550960 -8.749720 -2.192480 -6.469440 -0.000000 -176.690000 -12.108600 -3.970460 39.081100 -0.000007 -0.000012 -0.133366 0.287244 24.905400 40.985400 -0.000006 -0.000013 1.117830 7.598990 -68.781100 11.754300 -0.000000 0.000003 -0.000225 -0.002042 -16.654300 -2.192510 6.469440 -0.000001 175.593000 25.494200 177.363000 -39.081100 -0.002282 -0.040193 -0.010769 0.031019 24.418400 -40.985400 0.000008 0.000006 4.369630 12.600500 -69.350600 -11.754300 -0.000006 -0.000006 -0.001354 -0.020310 -17.399000
0.000000 0.000000 0.000000 0.000000 0.000000 -0.000000 0.508519 91.646100 1.890730 89.462800 0.029766 2.552870 15.735700 0.000005 -0.000001 84.140100 86.637900 -84.063900 8.984550 -0.406207 -0.000000 -1.076590 -0.692252 0.145962 16.377300 -0.000001 -0.000001 5.394020 -4.426780 3.032900 6.456720 -0.000001 -0.000000 -1.949530 -3.551060 -1.523350 12.994200 -0.242716 4.980390 -85.902100 -7.787700 -62.134200 5.348090 -0.000007 -0.000001 -34.517000 -49.941500 -64.995400 24.328600 0.000019 0.000005 12.400300 9.586330 -52.859000 22.291600 -0.000001 0.000005 24.345900 5.330850 -0.808644 12.994500 -0.242716 -4.980390 92.870100 -7.026070 -67.714600 -5.348130 -0.000001 -0.000004 -35.479000 -49.940400 -69.503800 -24.328900 0.000322 -0.000009 0.653526 0.535890 -50.709400 -22.291500 -0.000108 -0.000004 17.383100 5.523890 -7.529490 -2.192480 -6.469440 -0.000000 -176.567000 -12.237700 -3.819920 39.081100 -0.000007 -0.000012 -0.135540 0.288197 25.187900 40.985400 -0.000006 -0.000013 1.122320 7.638370 -68.949800 11.754300 -0.000000 0.000003 -0.000239 -0.002147 -16.658100 -2.192510 6.469440 -0.000001 175.467000 25.551000 177.564000 -39.081100 -0.002282 -0.040193 -0.020737 0.052443 24.635300 -40.985400 0.000008 0.000006 4.234530 12.749800 -69.447800 -11.754300 -0.000006 -0.000006 -0.001308 -0.019685 -17.373600
0.000000 0.000000 0.000000 0.000000 0.000000 -0.000000 0.474159 91.589900 1.937520 89.454800 -0.052724 2.884900 15.735700 0.000005 -0.000001 84.387500 86.524200 -84.338600 8.984550 -0.406207 -0.000000 -0.847403 -0.683414 0.092785 16.377300 -0.000001 -0.000001 5.122150 -4.412080 3.035810 6.456720 -0.000001 -0.000000 -1.827970 -3.620670 -1.229750 12.994200 -0.242716 4.980390 -86.695900 -6.550670 -63.159000 5.348090 -0.000007 -0.000001 -33.962000 -45.282600 -58.106500 24.328600 0.000019 0.000005 12.716100 8.804050 -55.852500 22.291600 -0.000001 0.000005 23.219100 5.316180 -0.386230 12.994500 -0.242716 -4.980390 91.944700 -5.032800 -68.844600 -5.348130 -0.000001 -0.000004 -32.672800 -45.476300 -61.671900 -24.328900 0.000322 -0.000009 0.999217 0.741778 -53.439600 -22.291500 -0.000108 -0.000004 17.596900 5.501380 -6.590830 -2.192480 -6.469440 -0.000000 -176.428000 -12.391900 -3.570110 39.081100 -0.000007 -0.000012 -0.139735 0.293003 25.497000 40.985400 -0.000006 -0.000013 1.143030 7.753830 -69.157800 11.754300 -0.000000 0.000003 -0.000238 -0.002142 -16.657900 -2.192510 6.469440 -0.000001 175.249000 25.606900 177.854000 -39.081100 -0.002282 -0.040193 -0.036214 0.085164 24.897100 -40.985400 0.000008 0.000006 3.986350 12.965200 -69.551300 -11.754300 -0.000006 -0.000006 -0.001214 -0.018408 -17.321700
